# xmcd
#
# Track frame offsets:
#	150
#	21360
#	45965
#	72150
#	90755
#	114837
#	136635
#	161040
#	184177
#	210340
#	232560
#	258250
#	280950
#	301245
#	327252
#
# Disc length: 4626 seconds
#
# Revision: 1
# Processed by: cddbd v1.5.1PL0 Copyright (c) Steve Scherf et al.
# Submitted via: CDex 1.50Beta5
#
DISCID=b112100f
DTITLE=山根康広 - MARK,THE
DYEAR=1997
DGENRE=
TTITLE0=Get Along Together
TTITLE1=Good-bye Love Road
TTITLE2=夏の日の中
TTITLE3=時の河を越えて
TTITLE4=あの時のように
TTITLE5=永遠の約束
TTITLE6=Yellを君に
TTITLE7=Everyone
TTITLE8=ALWAYS
TTITLE9=恋という名の翼
TTITLE10=銀の指環
TTITLE11=STAGE
TTITLE12=She’s my Lady
TTITLE13=ALWAYS II
TTITLE14=REACH FOR THE STAR
EXTD=
EXTT0=
EXTT1=
EXTT2=
EXTT3=
EXTT4=
EXTT5=
EXTT6=
EXTT7=
EXTT8=
EXTT9=
EXTT10=
EXTT11=
EXTT12=
EXTT13=
EXTT14=
PLAYORDER=
